<?xml version="1.0" standalone="no"?>
<!DOCTYPE svg PUBLIC "-//W3C//DTD SVG 20010904//EN"
 "http://www.w3.org/TR/2001/REC-SVG-20010904/DTD/svg10.dtd">
<svg version="1.0" xmlns="http://www.w3.org/2000/svg"
 width="611.000000pt" height="449.000000pt" viewBox="0 0 611.000000 449.000000"
 preserveAspectRatio="xMidYMid meet">

<g transform="translate(0.000000,449.000000) scale(0.100000,-0.100000)"
fill="white" stroke="none">
<path d="M1210 3355 l0 -345 65 0 65 0 0 170 0 170 140 0 140 0 0 -170 0 -170
65 0 65 0 0 345 0 345 -65 0 -65 0 0 -115 0 -115 -140 0 -140 0 0 115 0 115
-65 0 -65 0 0 -345z"/>
<path d="M1900 3355 l0 -345 220 0 220 0 0 65 0 65 -155 0 -155 0 0 100 0 100
140 0 140 0 0 65 0 65 -140 0 -140 0 0 55 0 55 160 0 160 0 0 60 0 60 -225 0
-225 0 0 -345z"/>
<path d="M2661 3678 c-5 -13 -62 -160 -126 -328 -65 -168 -120 -313 -123 -323
-4 -16 2 -18 64 -15 l68 3 36 93 35 93 115 -3 115 -3 34 -92 34 -93 70 0 c62
0 68 2 63 18 -4 9 -64 164 -133 345 l-127 327 -58 0 c-51 0 -60 -3 -67 -22z
m102 -272 c15 -40 27 -76 27 -79 0 -4 -27 -7 -60 -7 -33 0 -60 4 -60 9 0 17
52 151 59 151 3 0 18 -33 34 -74z"/>
<path d="M3150 3355 l0 -345 240 0 241 0 -3 63 -3 62 -177 3 -178 2 0 280 0
280 -60 0 -60 0 0 -345z"/>
<path d="M3600 3635 l0 -65 85 0 85 0 0 -280 0 -280 65 0 65 0 0 280 0 279 83
3 82 3 3 63 3 62 -236 0 -235 0 0 -65z"/>
<path d="M4170 3355 l0 -345 60 0 60 0 2 168 3 167 138 3 137 3 0 -171 0 -170
65 0 65 0 0 345 0 345 -65 0 -65 0 0 -115 0 -116 -137 3 -138 3 -3 113 -3 112
-59 0 -60 0 0 -345z"/>
<path d="M3886 2854 c-139 -34 -282 -128 -363 -237 -93 -125 -133 -246 -133
-397 0 -185 54 -322 177 -451 125 -130 259 -195 427 -206 327 -21 612 188 692
507 12 47 15 93 12 170 -12 280 -183 509 -448 601 -84 29 -274 36 -364 13z
m260 -228 c328 -87 427 -512 172 -730 -251 -215 -635 -72 -690 258 -21 126 20
253 114 352 106 113 260 158 404 120z"/>
<path d="M1210 2210 l0 -631 328 3 327 3 66 31 c113 54 186 134 229 251 19 53
22 77 18 156 -3 81 -8 103 -37 161 -32 66 -75 118 -138 166 l-32 25 15 55 c19
70 13 144 -19 213 -35 76 -79 122 -155 159 l-67 33 -267 3 -268 4 0 -632z
m495 386 c86 -36 68 -153 -26 -171 -19 -3 -79 -5 -134 -3 l-100 3 -3 80 c-1
43 0 85 2 92 8 19 215 18 261 -1z m147 -428 c135 -80 127 -267 -13 -339 -35
-18 -56 -19 -215 -17 l-177 3 -2 180 c-1 99 0 186 3 193 4 11 40 13 181 10
171 -3 177 -4 223 -30z"/>
<path d="M2360 2211 l0 -631 115 0 115 0 0 306 0 305 52 -3 52 -3 219 -302
220 -303 140 0 c110 0 137 3 130 13 -11 13 -393 540 -432 596 -23 32 -23 34
-6 44 44 24 107 93 132 146 24 48 28 68 27 136 0 99 -25 157 -99 231 -81 81
-105 87 -407 92 l-258 4 0 -631z m497 379 c54 -35 54 -118 0 -151 -27 -16 -51
-19 -149 -19 l-118 0 0 96 0 96 123 -4 c84 -2 129 -8 144 -18z"/>
<path d="M1587 1258 c-13 -10 -18 -24 -15 -43 2 -23 12 -34 41 -48 51 -24 48
-53 -6 -51 -47 2 -45 -20 2 -24 41 -4 61 12 61 50 0 25 -6 32 -40 45 -22 9
-40 22 -40 29 0 20 32 34 52 23 15 -9 37 5 26 17 -13 12 -65 14 -81 2z"/>
<path d="M1780 1250 c0 -5 11 -10 25 -10 24 0 25 -2 25 -75 0 -60 3 -75 15
-75 12 0 15 15 15 75 0 73 1 75 25 75 14 0 25 5 25 10 0 6 -28 10 -65 10 -37
0 -65 -4 -65 -10z"/>
<path d="M2024 1184 c-19 -43 -38 -82 -40 -86 -3 -4 2 -8 10 -8 8 0 18 9 21
20 5 16 15 20 52 20 36 0 46 -4 50 -20 4 -16 33 -30 33 -16 0 17 -69 161 -78
164 -7 2 -27 -29 -48 -74z m63 4 c13 -30 9 -38 -24 -38 -27 0 -27 2 -11 47 13
35 17 34 35 -9z"/>
<path d="M2220 1254 c0 -3 14 -25 30 -49 20 -28 30 -56 30 -79 0 -20 5 -36 10
-36 6 0 10 17 10 38 0 21 6 46 13 57 44 65 49 75 36 75 -8 0 -25 -17 -38 -37
l-23 -36 -21 36 c-12 21 -27 37 -34 37 -7 0 -13 -3 -13 -6z"/>
<path d="M2630 1175 c0 -50 4 -85 10 -85 6 0 10 18 10 40 l0 40 45 0 45 0 0
-40 c0 -29 4 -40 15 -40 12 0 15 16 15 85 0 69 -3 85 -15 85 -11 0 -15 -11
-15 -36 l0 -35 -42 3 c-40 3 -43 5 -46 36 -7 66 -22 29 -22 -53z"/>
<path d="M2900 1175 l0 -85 60 0 c71 0 81 18 13 22 -44 3 -48 5 -51 31 -3 26
-2 27 42 27 25 0 46 5 46 10 0 6 -20 10 -45 10 -41 0 -45 2 -45 25 0 23 4 25
45 25 25 0 45 5 45 10 0 6 -25 10 -55 10 l-55 0 0 -85z"/>
<path d="M3156 1179 c-35 -79 -40 -118 -9 -71 12 17 25 22 59 22 32 0 44 -4
44 -14 0 -16 18 -31 27 -23 8 9 -60 167 -73 167 -6 0 -28 -37 -48 -81z m74
-20 c0 -5 -13 -9 -30 -9 -35 0 -34 -3 -14 46 l16 38 14 -33 c8 -18 14 -37 14
-42z"/>
<path d="M3400 1175 l0 -85 50 0 c28 0 50 5 50 10 0 6 -18 10 -40 10 l-40 0 0
75 c0 43 -4 75 -10 75 -6 0 -10 -35 -10 -85z"/>
<path d="M3570 1250 c0 -5 14 -10 30 -10 l30 0 0 -75 c0 -43 4 -75 10 -75 6 0
10 32 10 75 0 73 1 75 24 75 14 0 28 5 31 10 4 6 -20 10 -64 10 -41 0 -71 -4
-71 -10z"/>
<path d="M3820 1181 c0 -44 5 -83 10 -86 6 -4 10 10 10 34 l0 41 45 0 45 0 0
-40 c0 -29 4 -40 15 -40 12 0 15 16 15 85 0 69 -3 85 -15 85 -10 0 -15 -11
-15 -35 0 -35 0 -35 -45 -35 -45 0 -45 0 -45 35 0 19 -4 35 -10 35 -6 0 -10
-33 -10 -79z"/>
<path d="M4085 1233 c10 -16 24 -37 32 -48 7 -11 13 -36 13 -57 0 -21 5 -38
10 -38 6 0 10 16 10 36 0 23 10 51 30 79 32 47 35 55 20 55 -5 0 -20 -16 -34
-36 l-24 -36 -24 36 c-13 20 -29 36 -37 36 -10 0 -9 -6 4 -27z"/>
<path d="M4330 1200 c0 -33 4 -60 10 -60 6 0 10 27 10 60 0 33 -4 60 -10 60
-6 0 -10 -27 -10 -60z"/>
<path d="M4327 1114 c-8 -8 1 -24 14 -24 5 0 9 7 9 15 0 15 -12 20 -23 9z"/>
</g>
</svg>
